<?xml version="1.0" encoding="utf-8"?>
<svg width="65" height="65" viewBox="0 0 65 65" fill="none" xmlns="http://www.w3.org/2000/svg">
<g clip-path="url(#clip0_21_17)">
<path d="M28.3853 0.78125H10.0743C8.87287 0.78125 7.89893 1.75519 7.89893 2.95661V7.87757C7.89893 9.07899 8.87287 10.0529 10.0743 10.0529H28.3853C29.5868 10.0529 30.5607 9.07899 30.5607 7.87757V2.95661C30.5607 1.75519 29.5868 0.78125 28.3853 0.78125Z" stroke="white" stroke-width="1.2" stroke-linecap="round" stroke-linejoin="round"/>
<path d="M28.5331 10.0742H9.94751V14.7206H28.5331V10.0742Z" stroke="white" stroke-width="1.2" stroke-linecap="round" stroke-linejoin="round"/>
<path d="M37.678 56.8552V60.4879C37.6781 60.9713 37.5822 61.4499 37.3959 61.8959C37.2097 62.342 36.9368 62.7467 36.593 63.0865C36.2492 63.4264 35.8414 63.6946 35.3932 63.8757C34.9451 64.0568 34.4654 64.1472 33.982 64.1416H4.41402C3.44669 64.1361 2.52056 63.7494 1.83655 63.0653C1.15253 62.3813 0.765804 61.4552 0.76026 60.4879V33.0319C0.756915 28.941 2.10029 24.9629 4.58298 21.7115L9.90522 14.6997H28.4908L33.982 21.7115C36.4502 24.9693 37.7852 28.9448 37.7836 33.0319V36.5167" stroke="white" stroke-width="1.2" stroke-linecap="round" stroke-linejoin="round"/>
<path d="M37.6781 36.5164V33.0527H0.781494V53.8559H27.8785" stroke="white" stroke-width="1.2" stroke-linecap="round" stroke-linejoin="round"/>
<path d="M24.7104 40.4025H22.3661C22.2877 40.4025 22.2125 40.3713 22.157 40.3159C22.1016 40.2604 22.0704 40.1852 22.0704 40.1068V37.7625C22.0704 37.6841 22.0393 37.6088 21.9838 37.5534C21.9284 37.4979 21.8532 37.4668 21.7747 37.4668H17.0861C17.0077 37.4668 16.9325 37.4979 16.877 37.5534C16.8216 37.6088 16.7904 37.6841 16.7904 37.7625V40.1068C16.7851 40.1871 16.7493 40.2624 16.6905 40.3173C16.6316 40.3722 16.5541 40.4027 16.4736 40.4025H14.1504C14.0699 40.4023 13.9924 40.4328 13.9336 40.4877C13.8747 40.5426 13.839 40.6179 13.8336 40.6982V45.4713C13.839 45.5516 13.8747 45.6268 13.9336 45.6818C13.9924 45.7367 14.0699 45.7671 14.1504 45.767H16.4736C16.5541 45.7668 16.6316 45.7972 16.6905 45.8522C16.7493 45.9071 16.7851 45.9823 16.7904 46.0626V48.407C16.7904 48.4854 16.8216 48.5606 16.877 48.616C16.9325 48.6715 17.0077 48.7026 17.0861 48.7026H21.8592C21.9376 48.7026 22.0128 48.6715 22.0683 48.616C22.1237 48.5606 22.1549 48.4854 22.1549 48.407V46.0626C22.1549 45.9842 22.1861 45.909 22.2415 45.8536C22.297 45.7981 22.3722 45.767 22.4506 45.767H24.7949C24.8337 45.767 24.8722 45.7593 24.9081 45.7445C24.9439 45.7296 24.9765 45.7078 25.004 45.6804C25.0314 45.6529 25.0532 45.6203 25.0681 45.5844C25.0829 45.5486 25.0906 45.5101 25.0906 45.4713V40.6982C25.0926 40.6511 25.0833 40.6042 25.0634 40.5615C25.0436 40.5187 25.0139 40.4813 24.9767 40.4524C24.9395 40.4234 24.8959 40.4038 24.8496 40.3951C24.8033 40.3865 24.7556 40.389 24.7104 40.4025Z" stroke="white" stroke-width="1.2" stroke-linecap="round" stroke-linejoin="round"/>
<path d="M10.4121 19.1348L7.51868 23.1898" stroke="white" stroke-width="1.2" stroke-linecap="round" stroke-linejoin="round"/>
<path d="M12.3763 4.98438V10.0743" stroke="white" stroke-width="1.2" stroke-linecap="round" stroke-linejoin="round"/>
<path d="M26.1044 4.98438V10.0743" stroke="white" stroke-width="1.2" stroke-linecap="round" stroke-linejoin="round"/>
<path d="M17.0227 4.98438V10.0743" stroke="white" stroke-width="1.2" stroke-linecap="round" stroke-linejoin="round"/>
<path d="M21.4579 4.98438V10.0743" stroke="white" stroke-width="1.2" stroke-linecap="round" stroke-linejoin="round"/>
<path d="M29.1246 55.4821C28.4368 54.8007 27.8909 53.9898 27.5184 53.0962C27.1458 52.2027 26.954 51.2441 26.954 50.276C26.954 49.3079 27.1458 48.3494 27.5184 47.4558C27.8909 46.5622 28.4368 45.7513 29.1246 45.0699L43.5073 30.6872C44.197 29.9873 45.019 29.4316 45.9254 29.0522C46.8319 28.6729 47.8047 28.4775 48.7873 28.4775C49.7699 28.4775 50.7427 28.6729 51.6491 29.0522C52.5556 29.4316 53.3776 29.9873 54.0673 30.6872C55.4473 32.0726 56.2221 33.9484 56.2221 35.9038C56.2221 37.8593 55.4473 39.7351 54.0673 41.1205L39.6634 55.4821C38.9785 56.1865 38.1593 56.7465 37.2542 57.1288C36.3491 57.5112 35.3765 57.7082 34.394 57.7082C33.4115 57.7082 32.4389 57.5112 31.5338 57.1288C30.6287 56.7465 29.8095 56.1865 29.1246 55.4821V55.4821Z" stroke="white" stroke-width="1.2" stroke-linecap="round" stroke-linejoin="round"/>
<path d="M36.2631 37.9316L46.8019 48.2593" stroke="white" stroke-width="1.2" stroke-linecap="round" stroke-linejoin="round"/>
<path d="M42.0499 53.0112C42.1174 54.7839 42.6167 56.5134 43.5043 58.0493C44.392 59.5853 45.6411 60.8813 47.1434 61.8249C48.6456 62.7685 50.3554 63.3311 52.1245 63.4638C53.8935 63.5965 55.6681 63.2954 57.2944 62.5866C58.9206 61.8778 60.3492 60.7827 61.4561 59.3964C62.563 58.0102 63.3148 56.3746 63.6461 54.6319C63.9774 52.8891 63.8783 51.0918 63.3573 49.396C62.8364 47.7002 61.9093 46.1573 60.6567 44.9012C58.7385 42.9356 56.1361 41.7857 53.3914 41.6909" stroke="white" stroke-width="1.2" stroke-linecap="round" stroke-linejoin="round"/>
<path d="M60.6566 44.9014L45.1968 60.1923" stroke="white" stroke-width="1.2" stroke-linecap="round" stroke-linejoin="round"/>
</g>
<defs>
<clipPath id="clip0_21_17">
<rect width="64.6061" height="64.944" fill="white"/>
</clipPath>
</defs>
</svg>
