<?xml version="1.0" encoding="utf-8"?>
<svg width="48" height="65" viewBox="0 0 48 65" fill="none" xmlns="http://www.w3.org/2000/svg">
<g clip-path="url(#clip0_21_26)">
<path d="M46.2106 53.0534L32.0813 22.5773C31.0317 20.3143 30.491 17.8487 30.4973 15.3542V8.36351C30.4985 7.62455 30.7688 6.91133 31.2576 6.35711L32.9261 4.49855C33.1847 4.17454 33.3261 3.77261 33.3274 3.35807V2.04863C33.3274 1.71254 33.1938 1.39023 32.9562 1.15258C32.7186 0.914933 32.3962 0.781426 32.0602 0.781426H15.671C15.5028 0.778623 15.3358 0.809331 15.1796 0.871757C15.0234 0.934184 14.8812 1.02708 14.7613 1.14503C14.6414 1.26298 14.5461 1.40362 14.4811 1.55876C14.4161 1.7139 14.3827 1.88042 14.3827 2.04863V3.35807C14.3916 3.77484 14.5404 4.17652 14.8051 4.49855L16.4736 6.35711C16.9624 6.91133 17.2326 7.62455 17.2339 8.36351V15.3542C17.2301 17.8477 16.6899 20.3111 15.6499 22.5773L11.1302 32.4826L1.60509 53.0534C1.05576 54.2441 0.814904 55.5539 0.904697 56.8621C0.994489 58.1704 1.41205 59.435 2.11891 60.5394C2.82577 61.6439 3.7992 62.5527 4.94953 63.1822C6.09987 63.8117 7.39012 64.1416 8.70142 64.1414H39.1142C40.4255 64.1416 41.7158 63.8117 42.8661 63.1822C44.0165 62.5527 44.9899 61.6439 45.6967 60.5394C46.4036 59.435 46.8212 58.1704 46.911 56.8621C47.0007 55.5539 46.7599 54.2441 46.2106 53.0534V53.0534Z" stroke="white" stroke-width="1.2" stroke-linecap="round" stroke-linejoin="round"/>
<path d="M36.6643 32.5039H11.0458" stroke="white" stroke-width="1.2" stroke-linecap="round" stroke-linejoin="round"/>
<path d="M8.32129 38.396H13.3901" stroke="white" stroke-width="1.2" stroke-linecap="round" stroke-linejoin="round"/>
<path d="M5.32227 44.9014H10.3911" stroke="white" stroke-width="1.2" stroke-linecap="round" stroke-linejoin="round"/>
<path d="M2.51331 51.4272H7.58211" stroke="white" stroke-width="1.2" stroke-linecap="round" stroke-linejoin="round"/>
<path d="M32.9684 41.501L37.5303 52.8635" stroke="white" stroke-width="1.2" stroke-linecap="round" stroke-linejoin="round"/>
<path d="M39.2832 58.4814C39.8314 58.4814 40.2758 58.037 40.2758 57.4887C40.2758 56.9405 39.8314 56.4961 39.2832 56.4961C38.7349 56.4961 38.2905 56.9405 38.2905 57.4887C38.2905 58.037 38.7349 58.4814 39.2832 58.4814Z" fill="white"/>
</g>
<defs>
<clipPath id="clip0_21_26">
<rect width="47.7101" height="64.944" fill="white"/>
</clipPath>
</defs>
</svg>
