<?xml version="1.0" encoding="utf-8"?>
<svg width="77" height="79" viewBox="0 0 77 79" fill="none" xmlns="http://www.w3.org/2000/svg">
<path d="M23.8627 23.2369C22.369 22.8467 20.8333 22.6484 19.2915 22.6467C15.8688 22.6261 12.5098 23.5929 9.60093 25.436C6.69204 27.279 4.35131 29.9235 2.84793 33.0653C1.34455 36.2071 0.739582 39.7186 1.10254 43.196C1.4655 46.6735 2.78165 49.9756 4.8997 52.7228" stroke="#0090D2" stroke-width="2" stroke-linecap="round" stroke-linejoin="round"/>
<path d="M32.0256 69.9421L29.1874 75.8188C28.8694 76.4736 28.3789 77.0247 27.7709 77.4101C27.163 77.7954 26.4618 77.9998 25.7464 78H6.33129C6.1152 77.418 6.00455 76.8006 6.00476 76.178C6.00599 75.4543 6.15125 74.7383 6.43174 74.0737C8.15676 70.636 8.90629 66.7739 8.5956 62.9238C8.28491 59.0737 6.92638 55.3891 4.67358 52.2865" stroke="#0090D2" stroke-width="2" stroke-linecap="round" stroke-linejoin="round"/>
<path d="M23.6616 63.7832L24.3398 65.8362C24.5114 66.4463 24.8319 67.0019 25.2712 67.4508C25.7105 67.8996 26.2543 68.2271 26.8514 68.4024L40.7409 72.842C41.2153 72.997 41.7225 73.0143 42.2059 72.892C42.6893 72.7696 43.1299 72.5124 43.4786 72.1491C44.2111 71.3591 44.6788 70.3516 44.8142 69.2722C44.9496 68.1928 44.7458 67.0974 44.2321 66.1441C44.5741 66.132 44.9066 66.0262 45.1948 65.8378C45.483 65.6493 45.7164 65.3852 45.8704 65.0731C46.0245 64.7609 46.0936 64.4121 46.0705 64.0633C46.0474 63.7145 45.9329 63.3785 45.7391 63.0903C45.7391 63.0903 49.2554 61.7559 46.6433 59.9339C44.0312 58.1119 50.4862 56.7261 49.8834 54.8014C49.2806 52.8768 42.3484 45.6913 45.9903 42.4579L47.221 41.3031" stroke="#0090D2" stroke-width="2" stroke-linecap="round" stroke-linejoin="round"/>
<path d="M68.1181 14.409C68.1181 14.409 68.1181 14.2037 68.1181 14.0754C68.1181 11.2509 67.02 8.5421 65.0652 6.54487C63.1104 4.54764 60.4592 3.42561 57.6947 3.42561C55.3357 3.41675 53.0463 4.24181 51.2147 5.76087C49.9085 3.94107 48.1132 2.54801 46.0469 1.75094C43.9805 0.953863 41.7321 0.787088 39.5747 1.27087C37.4174 1.75466 35.444 2.86818 33.8943 4.47615C32.3446 6.08412 31.2853 8.11733 30.8451 10.3287C29.0219 10.3955 27.269 11.064 25.8489 12.2343C24.4289 13.4045 23.4183 15.0134 22.9685 16.8199C22.5187 18.6263 22.654 20.5331 23.354 22.2544C24.0541 23.9757 25.2812 25.4188 26.8516 26.3676C26.6993 27.0669 26.6234 27.7813 26.6255 28.4976C26.6318 30.6705 27.3013 32.7872 28.5406 34.553C29.7799 36.3188 31.5274 37.6457 33.5396 38.3489C35.5519 39.0521 37.7287 39.0966 39.7668 38.4762C41.805 37.8557 43.603 36.6013 44.9104 34.8875C46.0958 36.1435 47.5708 37.0752 49.2003 37.5971C50.8298 38.1191 52.5614 38.2146 54.2364 37.8749C55.9114 37.5352 57.4761 36.7711 58.7869 35.6528C60.0976 34.5345 61.1126 33.0978 61.7385 31.4744C62.8844 32.2569 64.1881 32.7652 65.5528 32.9618C66.9175 33.1584 68.308 33.038 69.6209 32.6097C70.9338 32.1814 72.1352 31.4562 73.1359 30.488C74.1366 29.5198 74.9108 28.3336 75.4009 27.0175C75.891 25.7014 76.0843 24.2893 75.9665 22.8864C75.8487 21.4834 75.4229 20.1256 74.7206 18.914C74.0184 17.7024 73.0578 16.6682 71.9104 15.8882C70.7629 15.1082 69.4581 14.6027 68.093 14.409H68.1181Z" stroke="#0090D2" stroke-width="2" stroke-linecap="round" stroke-linejoin="round"/>
<path d="M33.7334 15.6152H41.2433" stroke="#0090D2" stroke-width="2" stroke-linecap="round" stroke-linejoin="round"/>
<path d="M44.9854 15.6152H63.2953" stroke="#0090D2" stroke-width="2" stroke-linecap="round" stroke-linejoin="round"/>
<path d="M33.7334 26.1111H41.2433" stroke="#0090D2" stroke-width="2" stroke-linecap="round" stroke-linejoin="round"/>
<path d="M44.9854 26.1111H63.2953" stroke="#0090D2" stroke-width="2" stroke-linecap="round" stroke-linejoin="round"/>
<path d="M63.2955 20.6707H55.7856" stroke="#0090D2" stroke-width="2" stroke-linecap="round" stroke-linejoin="round"/>
<path d="M52.0434 20.6707H33.7334" stroke="#0090D2" stroke-width="2" stroke-linecap="round" stroke-linejoin="round"/>
</svg>
