<?xml version="1.0" encoding="utf-8"?>
<svg width="80" height="80" viewBox="0 0 80 80" fill="none" xmlns="http://www.w3.org/2000/svg">
<path d="M68.9028 25.6253C72.902 33.401 74.0066 42.377 72.0143 50.9108C70.022 59.4447 65.0661 66.9657 58.0534 72.0978C51.0408 77.2299 42.4403 79.6299 33.8256 78.8586C25.211 78.0872 17.1583 74.1962 11.1409 67.8974C5.12356 61.5986 1.54395 53.3133 1.05711 44.5575C0.570264 35.8017 3.20873 27.1608 8.4897 20.2161C13.7707 13.2713 21.341 8.48696 29.8156 6.73853C38.2901 4.99009 47.1021 6.39446 54.6393 10.6947" stroke="#0090D2" stroke-width="2" stroke-linecap="round" stroke-linejoin="round"/>
<path d="M64.532 19.0404V19.0153" stroke="#0090D2" stroke-width="2" stroke-linecap="round" stroke-linejoin="round"/>
<path d="M51.3931 32.3648C53.9154 36.0635 54.9576 40.596 54.3084 45.0445C53.6593 49.4931 51.3674 53.5253 47.8969 56.3248C44.4263 59.1243 40.0365 60.4819 35.616 60.1227C31.1955 59.7636 27.0747 57.7145 24.088 54.3903C21.1013 51.0662 19.4719 46.7153 19.5296 42.2187C19.5872 37.7221 21.3277 33.4157 24.3986 30.1714C27.4695 26.9272 31.6414 24.9874 36.0696 24.7449C40.4978 24.5024 44.8514 25.9753 48.249 28.8654" stroke="#0090D2" stroke-width="2" stroke-linecap="round" stroke-linejoin="round"/>
<path d="M58.1668 25.4696C62.6146 30.9441 64.8046 37.9496 64.2793 45.0227C63.754 52.0959 60.5541 58.6897 55.3479 63.427C50.1418 68.1643 43.332 70.6787 36.3409 70.4449C29.3499 70.2112 22.7182 67.2474 17.8311 62.1726C12.944 57.0979 10.1794 50.3046 10.1147 43.2117C10.05 36.1188 12.6903 29.2749 17.484 24.1093C22.2778 18.9438 28.8543 15.8562 35.8399 15.4914C42.8255 15.1266 49.68 17.5128 54.9716 22.1517" stroke="#0090D2" stroke-width="2" stroke-linecap="round" stroke-linejoin="round"/>
<path d="M45.0283 38.8191C45.5229 39.9447 45.7755 41.164 45.7696 42.3963C45.7643 44.3874 45.1001 46.3191 43.8834 47.8818C42.6667 49.4446 40.9678 50.548 39.0591 51.0152C37.1504 51.4824 35.1423 51.2864 33.3565 50.4585C31.5708 49.6307 30.1107 48.2189 29.2103 46.4495C28.3099 44.6801 28.0213 42.6554 28.3907 40.6998C28.7601 38.7442 29.7661 36.971 31.2476 35.6642C32.7291 34.3574 34.6002 33.5927 36.5613 33.4927C38.5223 33.3926 40.4597 33.963 42.0631 35.1124" stroke="#0090D2" stroke-width="2" stroke-linecap="round" stroke-linejoin="round"/>
<path d="M68.9293 9.28026L70.8272 11.2048C71.0093 11.3895 71.1117 11.6401 71.1117 11.9013C71.1117 12.1626 71.0093 12.4131 70.8272 12.5978L40.9854 42.8591C40.5491 43.3015 39.9575 43.55 39.3405 43.55C38.7236 43.55 38.132 43.3015 37.6957 42.8591V42.8591C37.2595 42.4168 37.0144 41.8168 37.0144 41.1912C37.0144 40.5656 37.2595 39.9656 37.6957 39.5232L67.5375 9.26194C67.7197 9.07721 67.9667 8.97343 68.2244 8.97343C68.482 8.97343 68.7291 9.07722 68.9112 9.26194L68.9293 9.28026Z" stroke="#0090D2" stroke-width="2" stroke-linecap="round" stroke-linejoin="round"/>
<path d="M69.5676 25.7288L59.2917 24.355L68.7241 14.7642L79 16.1639L69.5676 25.7288Z" stroke="#0090D2" stroke-width="2" stroke-linecap="round" stroke-linejoin="round"/>
<path d="M65.4265 11.4463L64.0717 1L54.6138 10.5909L55.9941 21.0112L65.4265 11.4463Z" stroke="#0090D2" stroke-width="2" stroke-linecap="round" stroke-linejoin="round"/>
</svg>
