<?xml version="1.0" encoding="utf-8"?>
<svg width="95" height="94" viewBox="0 0 95 94" fill="none" xmlns="http://www.w3.org/2000/svg">
<path d="M2.18751 73.5625H6.87501V92.3125C6.87501 92.7268 7.03964 93.1244 7.3326 93.4174C7.62557 93.7104 8.02318 93.875 8.43751 93.875H24.0625C24.4769 93.875 24.8745 93.7104 25.1674 93.4174C25.4604 93.1244 25.625 92.7268 25.625 92.3125V73.5625H30.3125C30.7269 73.5625 31.1245 73.3979 31.4174 73.1049C31.7104 72.8119 31.875 72.4143 31.875 72V60.3343C31.8708 57.7611 30.8957 55.2841 29.1441 53.3986C27.3926 51.5125 24.9945 50.358 22.4282 50.1641C23.4808 48.813 24.0556 47.1507 24.0626 45.4375C24.0626 42.6466 22.5733 40.0671 20.1563 38.672C17.7394 37.2762 14.7608 37.2762 12.3438 38.672C9.92686 40.0671 8.43757 42.6466 8.43757 45.4375C8.44454 47.1507 9.01932 48.8129 10.0719 50.1641C7.50566 50.358 5.10744 51.5125 3.35601 53.3986C1.60448 55.2841 0.629229 57.7611 0.625122 60.3343V72C0.625122 72.4143 0.789743 72.8119 1.08271 73.1049C1.37568 73.3979 1.77328 73.5625 2.18762 73.5625H2.18751ZM16.25 40.75C17.493 40.75 18.6859 41.2439 19.5647 42.1228C20.4434 43.0017 20.9374 44.1946 20.9374 45.4374C20.9374 46.6803 20.4436 47.8733 19.5647 48.752C18.6857 49.6308 17.4929 50.1248 16.25 50.1248C15.0072 50.1248 13.8141 49.631 12.9354 48.752C12.0566 47.8731 11.5626 46.6803 11.5626 45.4374C11.5626 44.1946 12.0565 43.0015 12.9354 42.1228C13.8143 41.244 15.0072 40.75 16.25 40.75ZM3.75001 60.3339C3.75211 58.4554 4.49918 56.655 5.82734 55.327C7.1555 53.9989 8.95591 53.2518 10.8343 53.2496H21.6657C23.5443 53.2517 25.3447 53.9988 26.6727 55.327C28.0007 56.6551 28.7479 58.4555 28.75 60.3339V70.4371H25.625V57.9371H22.5V90.7496H17.8125V73.5621H14.6875V90.7496H10V57.9371H6.87501V70.4371H3.75001V60.3339Z" fill="#0090D2"/>
<path d="M93.3465 6.46833L76.159 0.218334C75.6797 0.0439481 75.1461 0.1144 74.7283 0.407369C74.3105 0.699637 74.0621 1.17746 74.0621 1.68737V29.8124H64.6871C63.8243 29.8124 63.1246 30.512 63.1246 31.3749V45.4374C63.1246 45.8517 63.2893 46.2493 63.5822 46.5423C63.8752 46.8352 64.2728 46.9999 64.6871 46.9999H86.5621C86.9765 46.9999 87.3741 46.8353 87.667 46.5423C87.96 46.2493 88.1246 45.8517 88.1246 45.4374V31.3749C88.1246 30.9605 87.96 30.5629 87.667 30.27C87.3741 29.977 86.9765 29.8124 86.5621 29.8124H77.1871V15.2811L93.3464 9.40648C93.9644 9.18187 94.376 8.59453 94.376 7.93744C94.376 7.28035 93.9644 6.69301 93.3464 6.4684L93.3465 6.46833ZM84.9997 32.938V43.8755H66.2497V32.938H74.0622V39.188H77.1872V32.938H84.9997ZM77.1872 11.9558V3.91869L88.2404 7.93726L77.1872 11.9558Z" fill="#0090D2"/>
<path d="M60 82.9375H33.4375V86.0625H60C66.1405 86.0625 71.8143 82.7867 74.8848 77.4687C77.9546 72.1507 77.9546 65.5992 74.8848 60.2812C71.8143 54.9632 66.1404 51.6875 60 51.6875H42.8125C40.5796 51.6875 38.5162 50.4961 37.3996 48.5625C36.2836 46.6289 36.2836 44.246 37.3996 42.3125C38.5164 40.3789 40.5798 39.1875 42.8125 39.1875H54.1218L48.0621 44.2376L50.062 46.6378L59.437 38.8253L59.4377 38.8246C59.7934 38.5282 59.9992 38.0887 59.9992 37.6248C59.9992 37.161 59.7934 36.7215 59.4377 36.425L50.0627 28.6125L48.0628 31.0127L54.1218 36.0622H42.8125C39.4628 36.0622 36.3678 37.8493 34.6937 40.7497C33.0189 43.6501 33.0189 47.2243 34.6937 50.1247C36.3678 53.0251 39.4628 54.8122 42.8125 54.8122H60C65.0237 54.8122 69.6666 57.4922 72.1784 61.8434C74.6902 66.1947 74.6902 71.5547 72.1784 75.9059C69.6666 80.2572 65.0237 82.9372 60 82.9372L60 82.9375Z" fill="#0090D2"/>
</svg>
