<?xml version="1.0" encoding="utf-8"?>
<svg width="70" height="60" viewBox="0 0 70 60" fill="none" xmlns="http://www.w3.org/2000/svg">
<path d="M1 30.8793V11.5524C1.00506 10.8228 1.296 10.1248 1.80943 9.61062C2.32286 9.09649 3.01711 8.80797 3.74068 8.80798H4.31563C5.0392 8.80797 5.73345 9.09649 6.24688 9.61062C6.76032 10.1248 7.05131 10.8228 7.05637 11.5524V29.1399" stroke="#0090D2" stroke-width="2" stroke-linecap="round" stroke-linejoin="round"/>
<path d="M7.26719 30.8794L7.0564 29.14V15.4372C7.0564 14.7094 7.3431 14.0113 7.85348 13.4966C8.36386 12.982 9.05609 12.6928 9.77788 12.6928C10.1369 12.6903 10.4928 12.7594 10.8252 12.8962C11.1576 13.0329 11.4599 13.2347 11.7147 13.4898C11.9694 13.7449 12.1716 14.0483 12.3096 14.3825C12.4475 14.7167 12.5186 15.0752 12.5185 15.4372V27.1493" stroke="#0090D2" stroke-width="2" stroke-linecap="round" stroke-linejoin="round"/>
<path d="M17.3293 40.678L8.35982 32.754C8.01473 32.4496 7.73255 32.0796 7.52939 31.6652C7.32623 31.2507 7.20608 30.8 7.17582 30.3386C7.14556 29.8773 7.20573 29.4145 7.35299 28.9767C7.50024 28.5389 7.73166 28.1346 8.03397 27.787V27.787C8.64637 27.0888 9.50737 26.6625 10.4297 26.601C11.3521 26.5395 12.2613 26.8476 12.9596 27.4585L21.3158 34.8607C22.1369 35.5812 22.7934 36.4726 23.2401 37.4735C23.6867 38.4745 23.9129 39.5612 23.9032 40.6587V49.6264" stroke="#0090D2" stroke-width="2" stroke-linecap="round" stroke-linejoin="round"/>
<path d="M1 30.8794C1.23055 34.5686 2.25938 38.1621 4.01423 41.4075C5.76908 44.6529 8.20736 47.4715 11.1578 49.6651" stroke="#0090D2" stroke-width="2" stroke-linecap="round" stroke-linejoin="round"/>
<path d="M25.3214 49.6844H8.83894C7.52641 49.6844 6.4624 50.7574 6.4624 52.081V56.6035C6.4624 57.927 7.52641 59 8.83894 59H25.3214C26.6339 59 27.698 57.927 27.698 56.6035V52.081C27.698 50.7574 26.6339 49.6844 25.3214 49.6844Z" stroke="#0090D2" stroke-width="2" stroke-linecap="round" stroke-linejoin="round"/>
<path d="M69.0001 30.8793V11.5524C68.995 10.8228 68.7041 10.1248 68.1906 9.61062C67.6772 9.09649 66.9829 8.80797 66.2594 8.80798H65.6652C64.9417 8.80797 64.2475 9.09649 63.7341 9.61062C63.2206 10.1248 62.9296 10.8228 62.9246 11.5524V29.1399" stroke="#0090D2" stroke-width="2" stroke-linecap="round" stroke-linejoin="round"/>
<path d="M57.4812 27.1493V15.4372C57.4812 15.0752 57.5522 14.7167 57.6902 14.3825C57.8281 14.0483 58.0303 13.7449 58.2851 13.4898C58.5398 13.2347 58.8421 13.0329 59.1745 12.8962C59.5069 12.7594 59.8629 12.6903 60.2219 12.6928C60.5793 12.6928 60.9331 12.7638 61.2633 12.9017C61.5935 13.0396 61.8936 13.2418 62.1463 13.4966C62.399 13.7515 62.5995 14.054 62.7363 14.387C62.873 14.72 62.9434 15.0768 62.9434 15.4372V29.14L62.7326 30.8794" stroke="#0090D2" stroke-width="2" stroke-linecap="round" stroke-linejoin="round"/>
<path d="M52.6705 40.678L61.6401 32.754C61.9851 32.4496 62.2673 32.0796 62.4705 31.6652C62.6737 31.2507 62.7938 30.8 62.8241 30.3386C62.8543 29.8773 62.7941 29.4145 62.6469 28.9767C62.4996 28.5389 62.2682 28.1346 61.9659 27.787V27.787C61.3535 27.0888 60.4925 26.6625 59.5701 26.601C58.6478 26.5395 57.7386 26.8476 57.0403 27.4585L48.6841 34.8607C47.863 35.5812 47.2065 36.4726 46.7598 37.4735C46.3132 38.4745 46.087 39.5612 46.0967 40.6587V49.6264" stroke="#0090D2" stroke-width="2" stroke-linecap="round" stroke-linejoin="round"/>
<path d="M68.9998 30.8794C68.7693 34.5686 67.7405 38.1621 65.9856 41.4075C64.2308 44.6529 61.7925 47.4715 58.842 49.6651" stroke="#0090D2" stroke-width="2" stroke-linecap="round" stroke-linejoin="round"/>
<path d="M44.6595 59H61.142C62.4546 59 63.5186 57.927 63.5186 56.6035V52.081C63.5186 50.7574 62.4546 49.6845 61.142 49.6845H44.6595C43.347 49.6845 42.283 50.7574 42.283 52.081V56.6035C42.283 57.927 43.347 59 44.6595 59Z" stroke="#0090D2" stroke-width="2" stroke-linecap="round" stroke-linejoin="round"/>
<path d="M35.4987 19.2252C38.2931 19.2252 40.5584 16.9408 40.5584 14.1229C40.5584 11.305 38.2931 9.02063 35.4987 9.02063C32.7043 9.02063 30.439 11.305 30.439 14.1229C30.439 16.9408 32.7043 19.2252 35.4987 19.2252Z" stroke="#0090D2" stroke-width="2" stroke-linecap="round" stroke-linejoin="round"/>
<path d="M38.0472 18.5295C39.7359 19.0259 41.2827 19.9214 42.5594 21.1416C43.836 22.3617 44.8056 23.8714 45.3877 25.5452C44.0457 26.96 42.4334 28.0861 40.6481 28.8554C38.8628 29.6247 36.9414 30.0213 34.9999 30.0213C33.0584 30.0213 31.137 29.6247 29.3517 28.8554C27.5663 28.0861 25.954 26.96 24.6121 25.5452C25.2408 23.7564 26.3119 22.159 27.7239 20.9043C29.1358 19.6495 30.842 18.7789 32.6809 18.3749" stroke="#0090D2" stroke-width="2" stroke-linecap="round" stroke-linejoin="round"/>
<path d="M49.3742 15.4952C49.3742 18.362 48.5312 21.1645 46.9518 23.5482C45.3723 25.9319 43.1273 27.7898 40.5008 28.8869C37.8742 29.984 34.9841 30.2711 32.1957 29.7118C29.4074 29.1525 26.8461 27.772 24.8358 25.7448C22.8256 23.7176 21.4566 21.1348 20.9019 18.323C20.3473 15.5112 20.632 12.5967 21.7199 9.9481C22.8079 7.29946 24.6503 5.03562 27.0141 3.44287C29.3779 1.85012 32.157 1 35 1C38.8123 1 42.4685 2.52716 45.1642 5.24553C47.8599 7.9639 49.3742 11.6508 49.3742 15.4952Z" stroke="#0090D2" stroke-width="2" stroke-linecap="round" stroke-linejoin="round"/>
</svg>
