<?xml version="1.0" encoding="UTF-8"?>
<!DOCTYPE svg PUBLIC "-//W3C//DTD SVG 1.1//EN" "http://www.w3.org/Graphics/SVG/1.1/DTD/svg11.dtd">
<!-- Creator: CorelDRAW 2020 (64-Bit) -->
<svg xmlns="http://www.w3.org/2000/svg" xml:space="preserve" width="256px" height="30px" version="1.1" style="shape-rendering:geometricPrecision; text-rendering:geometricPrecision; image-rendering:optimizeQuality; fill-rule:evenodd; clip-rule:evenodd"
viewBox="0 0 37.12 4.46"
 xmlns:xlink="http://www.w3.org/1999/xlink"
 xmlns:xodm="http://www.corel.com/coreldraw/odm/2003">
 <defs>
  <style type="text/css">
   <![CDATA[
    .fil0 {fill:#4A4B9C;fill-rule:nonzero}
   ]]>
  </style>
 </defs>
 <g id="Capa_x0020_1">
  <metadata id="CorelCorpID_0Corel-Layer"/>
  <g id="_2069833005088">
   <path class="fil0" d="M10.96 3.99c-0.09,0.06 -0.21,0.04 -0.27,-0.05 -0.06,-0.09 -0.04,-0.21 0.05,-0.27 0.09,-0.06 0.21,-0.04 0.27,0.05 0.06,0.09 0.04,0.21 -0.05,0.27zm-0.79 -0.36c-0.39,0.08 -0.78,0.12 -1.26,0.12 -0.33,0 -0.73,-0.04 -1.14,-0.13 -0.13,-0.03 -0.18,-0.09 -0.13,-0.24 0.25,-0.79 0.66,-1.49 1.22,-2.11 0.1,-0.12 0.18,-0.1 0.28,0.01 0.55,0.61 0.94,1.3 1.2,2.07 0.06,0.16 0,0.24 -0.17,0.28zm-1.28 -3.19c0.08,-0.06 0.2,-0.03 0.26,0.05 0.06,0.09 0.04,0.21 -0.04,0.27 -0.09,0.06 -0.21,0.04 -0.27,-0.05 -0.06,-0.08 -0.04,-0.2 0.05,-0.27zm-1.64 3.55c-0.09,0.06 -0.21,0.04 -0.27,-0.05 -0.06,-0.09 -0.04,-0.21 0.05,-0.27 0.09,-0.06 0.21,-0.04 0.27,0.05 0.06,0.09 0.04,0.21 -0.05,0.27zm3.82 -0.61c-0.18,-0.08 -0.34,-0.19 -0.46,-0.34 -0.47,-0.57 -0.84,-1.19 -1.07,-1.89 -0.05,-0.14 -0.09,-0.28 -0.05,-0.44 0.05,-0.21 -0.03,-0.4 -0.21,-0.52 -0.17,-0.12 -0.36,-0.12 -0.53,-0.02 -0.19,0.1 -0.27,0.27 -0.25,0.48 0.03,0.24 -0.02,0.46 -0.11,0.68 -0.21,0.54 -0.5,1.05 -0.85,1.51 -0.17,0.23 -0.36,0.43 -0.63,0.55 -0.28,0.12 -0.37,0.45 -0.22,0.7 0.16,0.26 0.49,0.33 0.73,0.14 0.16,-0.11 0.33,-0.18 0.51,-0.22 0.35,-0.07 0.71,-0.09 1.07,-0.08 0.02,0 0.05,0 0.07,0 0.55,0.01 1.1,0.01 1.58,0.35 0.22,0.16 0.55,0.02 0.66,-0.22 0.13,-0.26 0.03,-0.56 -0.24,-0.68z"/>
   <path class="fil0" d="M0 4.32l3.26 0c2.05,0 2.67,-1.01 2.67,-2.12 0,-1.13 -0.65,-2.05 -2.67,-2.05l-3.26 0 0 4.17zm3.18 -3.57c1.48,0 1.9,0.69 1.9,1.46 0,0.78 -0.42,1.51 -1.9,1.51l-2.36 0 0 -2.97 2.36 0z"/>
   <polygon class="fil0" points="12.43,0.15 13.25,0.15 13.25,3.7 16.9,3.7 16.9,4.32 12.43,4.32 "/>
   <path class="fil0" d="M23.97 3.44c-0.35,0.34 -1.17,1.02 -2.99,1.02 -2.08,0 -3.33,-0.87 -3.33,-2.23 0,-1.32 1.19,-2.23 3.34,-2.23 1.85,0 2.6,0.66 2.89,0.92l-0.6 0.38c-0.49,-0.34 -1.06,-0.7 -2.29,-0.7 -1.68,0 -2.46,0.72 -2.46,1.63 0,0.94 0.83,1.63 2.46,1.63 1.22,0 1.89,-0.43 2.37,-0.81l0.61 0.39z"/>
   <polygon class="fil0" points="25.06,4.32 25.06,0.15 25.88,0.15 25.88,1.87 29.85,1.87 29.85,0.15 30.67,0.15 30.67,4.32 29.85,4.32 29.85,2.49 25.88,2.49 25.88,4.32 "/>
   <polygon class="fil0" points="32.43,4.32 32.43,0.15 37.12,0.15 37.12,0.75 33.25,0.75 33.25,1.89 37.12,1.89 37.12,2.49 33.25,2.49 33.25,3.72 37.12,3.72 37.12,4.32 "/>
  </g>
 </g>
</svg>
